<?xml version="1.0" encoding="UTF-8"?>
<svg width="24px" height="24px" viewBox="0 0 24 24" version="1.1" xmlns="http://www.w3.org/2000/svg" xmlns:xlink="http://www.w3.org/1999/xlink">
    <g id="页面-1" stroke="none" stroke-width="1" fill="none" fill-rule="evenodd">
        <g id="贡献软件包平台详情页--maintainer视角-待审批" transform="translate(-360.000000, -471.000000)">
            <g id="编组-22" transform="translate(252.000000, 120.000000)">
                <g id="按钮/主要按钮/light/高40px/nor/文字" transform="translate(56.000000, 347.000000)">
                    <g id="评论" transform="translate(52.000000, 4.000000)">
                        <rect id="矩形" x="0" y="0" width="24" height="24"></rect>
                        <g filter="url(#filter-1)" id="comment_text_outlined@1x">
                            <g transform="translate(4.000000, 6.000000)">
                                <path d="M12.96,0 L1.44,0 C0.64470996,0 0,0.64470996 0,1.44 L0,10.08 C0,10.87529 0.64470996,11.52 1.44,11.52 L5.1048,11.52 C5.29368471,11.5207953 5.47469234,11.5957842 5.6088,11.7288 L6.6816,12.8016 C6.78277253,12.9028986 6.92003131,12.96 7.0632,12.96 L7.3368,12.96 C7.47996869,12.96 7.61722747,12.9028986 7.7184,12.8016 L8.7912,11.7288 C8.92530763,11.5957842 9.10631527,11.5207953 9.2952,11.52 L12.96,11.52 C13.75529,11.52 14.4,10.87529 14.4,10.08 L14.4,1.44 C14.4,0.64470996 13.75529,0 12.96,0 Z M12.96,10.08 L9.2952,10.08 C8.72252539,10.0805041 8.17348997,10.3084057 7.7688,10.7136 L7.2,11.2824 L6.6312,10.7136 C6.22651003,10.3084057 5.67747461,10.0805041 5.1048,10.08 L1.44,10.08 L1.44,1.44 L12.96,1.44 L12.96,10.08 Z M3.24,7.92 L8.28,7.92 C8.47882253,7.92 8.64,7.75882253 8.64,7.56 L8.64,6.84 C8.64,6.64117747 8.47882253,6.48 8.28,6.48 L3.24,6.48 C3.04117749,6.48 2.88,6.64117747 2.88,6.84 L2.88,7.56 C2.88,7.75882253 3.04117749,7.92 3.24,7.92 Z M3.24,5.04 L11.16,5.04 C11.3588225,5.04 11.52,4.87882251 11.52,4.68 L11.52,3.96 C11.52,3.76117749 11.3588225,3.6 11.16,3.6 L3.24,3.6 C3.04117749,3.6 2.88,3.76117749 2.88,3.96 L2.88,4.68 C2.88,4.87882251 3.04117749,5.04 3.24,5.04 Z" id="Icon-color" fill="#CCCCCC" fill-rule="nonzero"></path>
                            </g>
                        </g>
                    </g>
                </g>
            </g>
        </g>
    </g>
</svg>