<svg viewBox="0 0 24 24">
    <g stroke="none" stroke-width="1" fill="none" fill-rule="evenodd">
        <g transform="translate(2.000000, 2.000000)" fill="#13BD5A">
            <circle cx="10" cy="10" r="10"></circle>
        </g>
        <path d="M15.5941579,12.7062921 C16.0411731,13.1533073 16.0496073,13.8728218 15.6194606,14.33012 L15.5941579,14.3562079 L12.4151385,17.5352273 C12.1873327,17.7630331 11.8179864,17.7630331 11.5901806,17.5352273 C11.369278,17.3143246 11.3625839,16.9603298 11.5700985,16.731361 L11.5901806,16.7102694 L14.5629605,13.7374895 C14.671686,13.628764 14.676628,13.4555557 14.5777867,13.3409681 L14.5629605,13.3250105 L8.52768058,7.28973064 C8.29987475,7.06192481 8.29987475,6.69257857 8.52768058,6.46477273 C8.74858321,6.2438701 9.10257801,6.23717608 9.33154683,6.44469067 L9.35263849,6.46477273 L15.5941579,12.7062921 Z" id="形状结合" fill="#FFFFFF" fill-rule="nonzero" transform="translate(12.146346, 12.000000) rotate(-270.000000) translate(-12.146346, -12.000000) "></path>
    </g>
</svg>