<?xml version="1.0" encoding="UTF-8"?>
<svg width="13px" height="16px" viewBox="0 0 13 16" version="1.1" xmlns="http://www.w3.org/2000/svg" xmlns:xlink="http://www.w3.org/1999/xlink">
    <g id="页面-1" stroke="none" stroke-width="1" fill="currentColor">
        <g id="bookmark_outlined@1x" transform="translate(-530.000000, -220.000000)">
            <g transform="translate(530.000000, 220.000000)">
                <path fill="currentColor" d="M11.375,1.59999959 L11.375,13.7519965 L7.791875,11.551997 C7.00146492,11.0655896 5.99853508,11.0655896 5.208125,11.551997 L1.625,13.7519965 L1.625,1.59999959 L11.375,1.59999959 L11.375,1.59999959 Z M11.375,0 L1.625,0 C0.727537281,0 0,0.716344216 0,1.59999959 L0,15.1999961 C0,15.6418237 0.363768641,16 0.8125,16 C0.964620451,16.0004765 1.11382273,15.9588991 1.243125,15.8799959 L6.069375,12.9039967 C6.33284502,12.7418609 6.66715498,12.7418609 6.930625,12.9039967 L11.756875,15.8799959 C11.8861773,15.9588991 12.0353795,16.0004765 12.1875,16 C12.6362313,16 13,15.6418237 13,15.1999961 L13,1.59999959 C13,0.716344216 12.2724627,0 11.375,0 Z"></path>
            </g>
        </g>
    </g>
</svg>