<svg viewBox="0 0 24 24">
    <g stroke="none" stroke-width="1" fill="none" fill-rule="evenodd" transform="translate(1.500000, 2.000000)">
        <circle fill="#E60012" cx="10" cy="10" r="10"></circle>
        <path d="M13.0818502,6.08490779 C13.3161647,5.85059321 13.6960637,5.85059321 13.9303783,6.08490779 C14.1386579,6.29318741 14.1618001,6.61649669 13.9998048,6.85033846 L13.9303783,6.93343592 L6.93037829,13.9334359 C6.69606371,14.1677505 6.31616473,14.1677505 6.08185015,13.9334359 C5.87357053,13.7251563 5.85042835,13.401847 6.01242361,13.1680053 L6.08185015,13.0849078 L13.0818502,6.08490779 Z" id="路径-125" fill="#FFFFFF" fill-rule="nonzero"></path>
        <path d="M9.0742421,10.9268096 C9.28252172,11.1350892 9.3056639,11.4583985 9.14366864,11.6922402 L9.0742421,11.7753377 L6.92185991,13.9277199 C6.68754533,14.1620345 6.30764634,14.1620345 6.07333177,13.9277199 C5.86505215,13.7194403 5.84190997,13.396131 6.00390523,13.1622892 L6.07333177,13.0791918 L8.22571396,10.9268096 C8.46002854,10.692495 8.83992752,10.692495 9.0742421,10.9268096 Z M13.9218599,6.07919175 C14.1301395,6.28747138 14.1532817,6.61078066 13.9912864,6.84462243 L13.9218599,6.92771989 L10.5141026,10.3354772 C10.2797881,10.5697917 9.89988908,10.5697917 9.66557451,10.3354772 C9.45729489,10.1271975 9.43415271,9.80388825 9.59614797,9.57004648 L9.66557451,9.48694901 L13.0733318,6.07919175 C13.3076463,5.84487718 13.6875453,5.84487718 13.9218599,6.07919175 Z" id="形状" fill="#FFFFFF" fill-rule="nonzero" transform="translate(9.997596, 10.003456) scale(-1, 1) translate(-9.997596, -10.003456) "></path>      
    </g>
</svg>