<?xml version="1.0" encoding="UTF-8"?>
<svg width="18px" height="18px" viewBox="0 0 18 18" version="1.1" xmlns="http://www.w3.org/2000/svg" xmlns:xlink="http://www.w3.org/1999/xlink">
    <title>translate</title>
    <g id="页面-1" stroke="none" stroke-width="1" fill="none" fill-rule="evenodd">
        <g id="贡献软件包平台详情页--maintainer视角-待审批" transform="translate(-1594.000000, -593.000000)" fill="#000000" fill-rule="nonzero">
            <g id="编组-22" transform="translate(252.000000, 120.000000)">
                <g id="编组-9" transform="translate(40.000000, 395.000000)">
                    <g id="globe@1x" transform="translate(1302.000000, 78.000000)">
                        <path d="M9,0 C4.02943725,0 0,4.02943725 0,9 C0,13.9705627 4.02943725,18 9,18 C13.9705627,18 18,13.9705627 18,9 C18,4.02943725 13.9705627,0 9,0 Z M15.92,8 L13.35,8 C13.2942919,6.19730462 12.8937391,4.42197329 12.17,2.77 C14.1947785,3.8013446 15.5929628,5.75134564 15.92,8 Z M9.45,16 L9,16 L8.55,16 C7.64,15.43 6.55,13.24 6.41,10 L11.59,10 C11.41,13.22 10.36,15.41 9.45,16 L9.45,16 Z M6.45,8 C6.63,4.78 7.68,2.59 8.59,2 L9,2 L9.45,2 C10.36,2.57 11.45,4.76 11.59,8 L6.45,8 Z M5.83,2.77 C5.10626089,4.42197329 4.70570812,6.19730462 4.65,8 L2.08,8 C2.40703718,5.75134564 3.80522148,3.8013446 5.83,2.77 Z M2.08,10 L4.65,10 C4.70570812,11.8026954 5.10626089,13.5780267 5.83,15.23 C3.80522148,14.1986554 2.40703718,12.2486544 2.08,10 L2.08,10 Z M12.17,15.23 C12.8937391,13.5780267 13.2942919,11.8026954 13.35,10 L15.92,10 C15.5929628,12.2486544 14.1947785,14.1986554 12.17,15.23 L12.17,15.23 Z" id="Icon-color"></path>
                    </g>
                </g>
            </g>
        </g>
    </g>
</svg>